<svg xmlns="http://www.w3.org/2000/svg" viewBox="0 0 217 64" width="217" height="64"><path d="M6 40 Q12 28 20 40 T34 40" fill="none" stroke="#ffd166" stroke-width="4.5" stroke-linecap="round"/><circle cx="48" cy="34" r="8" fill="#ffd166"/><g fill="#f2efe8"><path transform="translate(82.0,47) scale(0.04286,-0.04286)" d="M15 0V700L16 711L19 721L23 731L29 741L36 749L45 755L54 760L65 764L76 766H86L97 764L108 760L117 755L126 749L133 741L139 731L143 721L146 711L147 700V0L146 -11L143 -21L139 -31L133 -41L126 -49L117 -55L108 -60L97 -64L86 -66H76L65 -64L54 -60L45 -55L36 -49L29 -41L23 -31L19 -21L16 -11ZM60 285 47 287 35 292 24 299 15 308 8 319 3 331 0 343V356L2 369L7 381L14 392L23 401L34 409L46 414L59 416H72H83L94 417L105 419L116 422L127 426L137 431L146 437L155 445L163 453L170 462L176 471L181 481L185 492L188 503L189 514L190 525L189 536L188 547L185 558L181 569L176 579L170 588L163 597L155 605L146 613L137 619L127 624L116 628L105 631L94 633L83 634H72H59L46 636L34 641L23 649L14 658L7 669L2 681L0 694V707L3 719L8 731L15 742L24 751L35 758L47 763L60 765L85 766L110 764L134 760L158 753L182 744L204 732L225 719L244 703L261 685L277 665L290 644L302 622L310 599L317 575L321 550L322 525L321 500L317 475L310 451L302 428L290 406L277 385L261 365L244 347L225 331L204 318L182 306L158 297L134 290L110 286L85 284Z"/><path transform="translate(99.0,47) scale(0.04286,-0.04286)" d="M0 0V750L1 761L4 771L8 781L14 791L21 799L30 805L39 810L50 814L61 816H71L82 814L93 810L102 805L111 799L118 791L124 781L128 771L131 761L132 750V0L131 -11L128 -21L124 -31L118 -41L111 -49L102 -55L93 -60L82 -64L71 -66H61L50 -64L39 -60L30 -55L21 -49L14 -41L8 -31L4 -21L1 -11ZM536 318 535 305 531 293 525 281 517 271 507 263 495 257 483 253 470 252 457 253 445 257 433 263 423 271 415 281 409 293 405 305 404 318 403 332 401 345 398 359 393 372 387 384 380 396 371 407 362 417 351 426 340 433 328 440 315 446 302 450 289 452 275 454H261L247 452L234 450L221 446L208 440L196 433L185 426L174 417L165 407L156 396L149 384L143 372L138 359L135 345L133 332L132 318L131 305L127 293L121 281L113 271L103 263L91 257L79 253L66 252L53 253L41 257L29 263L19 271L11 281L5 293L1 305L0 318L1 345L5 372L12 398L22 424L34 448L48 471L65 493L83 512L104 530L126 545L150 559L175 569L201 577L227 583L254 586H282L309 583L335 577L361 569L386 559L410 545L432 530L453 512L471 493L488 471L502 448L514 424L524 398L531 372L535 345ZM536 318V0L535 -11L532 -21L528 -31L522 -41L515 -49L506 -55L497 -60L486 -64L475 -66H465L454 -64L443 -60L434 -55L425 -49L418 -41L412 -31L408 -21L405 -11L404 0V318L405 329L408 339L412 349L418 359L425 367L434 373L443 378L454 382L465 384H475L486 382L497 378L506 373L515 367L522 359L528 349L532 339L535 329Z"/><path transform="translate(123.0,47) scale(0.04286,-0.04286)" d="M268 528 281 527 293 523 305 517 315 509 323 499 329 487 333 475 334 462 333 449 329 437 323 425 315 415 305 407 293 401 281 397 268 396 254 395 240 393 227 390 214 385 201 378 189 371 178 362 168 352 159 342 151 330 145 318 140 305 136 291 133 277 132 264V250L134 236L137 222L142 209L148 196L155 184L164 173L173 163L184 153L195 145L207 138L220 133L233 128L247 126L261 124H275L289 126L303 128L316 133L329 138L341 145L352 153L363 163L372 173L381 184L388 196L394 209L399 222L402 236L404 250V264L403 277L400 291L396 305L391 318L385 330L377 342L368 352L358 362L347 371L335 378L322 385L309 390L296 393L282 395L268 396L255 397L243 401L231 407L221 415L213 425L207 437L203 449L202 462L203 475L207 487L213 499L221 509L231 517L243 523L255 527L268 528L296 527L323 522L350 515L375 506L400 493L423 478L445 461L465 442L482 421L498 398L511 374L521 348L529 322L534 294L536 267L535 239L532 212L525 185L516 159L505 134L490 110L474 88L455 68L434 50L412 34L388 20L363 9L336 1L309 -5L282 -8H254L227 -5L200 1L173 9L148 20L124 34L102 50L81 68L62 88L46 110L31 134L20 159L11 185L4 212L1 239L0 267L2 294L7 322L15 348L25 374L38 398L54 421L71 442L91 461L113 478L136 493L161 506L186 515L213 522L240 527Z"/><path transform="translate(147.0,47) scale(0.04286,-0.04286)" d="M233 645V182L232 171L229 160L225 150L219 141L212 133L203 127L194 121L183 118L172 116H162L151 118L140 121L131 127L122 133L115 141L109 150L105 160L102 171L101 182V645L102 656L105 666L109 676L115 686L122 694L131 700L140 705L151 709L162 711H172L183 709L194 705L203 700L212 694L219 686L225 676L229 666L232 656ZM101 182 102 195 106 207 112 218 120 228 130 237 142 243 154 247 167 248 180 247 192 243 204 237 214 228 222 218 228 207 232 195 233 182V174L234 167L236 160L239 153L242 146L246 139L251 133L256 128L261 123L267 118L274 115L281 112L288 109L295 108L303 107L310 106L318 107L325 108L332 110L339 113L346 117L358 122L370 125H383L396 123L408 119L419 112L429 103L436 92L442 81L445 68V55L443 42L438 30L431 19L423 10L412 2L394 -7L374 -15L355 -20L334 -24L314 -26L293 -25L272 -22L252 -18L233 -11L214 -3L196 8L179 20L164 33L150 48L137 65L126 83L117 101L110 121L105 141L102 161ZM66 586H389L400 585L411 582L421 578L430 572L438 565L444 556L450 547L453 536L455 525V515L453 504L450 493L444 484L438 475L430 468L421 462L411 458L400 455L389 454H66L55 455L45 458L35 462L25 468L17 475L11 484L6 493L2 504L0 515V525L2 536L6 547L11 556L17 565L25 572L35 578L45 582L55 585Z"/><path transform="translate(163.2,47) scale(0.04286,-0.04286)" d="M268 528 281 527 293 523 305 517 315 509 323 499 329 487 333 475 334 462 333 449 329 437 323 425 315 415 305 407 293 401 281 397 268 396 254 395 240 393 227 390 214 385 201 378 189 371 178 362 168 352 159 342 151 330 145 318 140 305 136 291 133 277 132 264V250L134 236L137 222L142 209L148 196L155 184L164 173L173 163L184 153L195 145L207 138L220 133L233 128L247 126L261 124H275L289 126L303 128L316 133L329 138L341 145L352 153L363 163L372 173L381 184L388 196L394 209L399 222L402 236L404 250V264L403 277L400 291L396 305L391 318L385 330L377 342L368 352L358 362L347 371L335 378L322 385L309 390L296 393L282 395L268 396L255 397L243 401L231 407L221 415L213 425L207 437L203 449L202 462L203 475L207 487L213 499L221 509L231 517L243 523L255 527L268 528L296 527L323 522L350 515L375 506L400 493L423 478L445 461L465 442L482 421L498 398L511 374L521 348L529 322L534 294L536 267L535 239L532 212L525 185L516 159L505 134L490 110L474 88L455 68L434 50L412 34L388 20L363 9L336 1L309 -5L282 -8H254L227 -5L200 1L173 9L148 20L124 34L102 50L81 68L62 88L46 110L31 134L20 159L11 185L4 212L1 239L0 267L2 294L7 322L15 348L25 374L38 398L54 421L71 442L91 461L113 478L136 493L161 506L186 515L213 522L240 527Z"/><path transform="translate(187.2,47) scale(0.04286,-0.04286)" d="M0 0V520L1 531L4 541L8 551L14 561L21 569L30 575L39 580L50 584L61 586H71L82 584L93 580L102 575L111 569L118 561L124 551L128 541L131 531L132 520V0L131 -11L128 -21L124 -31L118 -41L111 -49L102 -55L93 -60L82 -64L71 -66H61L50 -64L39 -60L30 -55L21 -49L14 -41L8 -31L4 -21L1 -11ZM536 318 535 305 531 293 525 281 517 271 507 263 495 257 483 253 470 252 457 253 445 257 433 263 423 271 415 281 409 293 405 305 404 318 403 332 401 345 398 359 393 372 387 384 380 396 371 407 362 417 351 426 340 433 328 440 315 446 302 450 289 452 275 454H261L247 452L234 450L221 446L208 440L196 433L185 426L174 417L165 407L156 396L149 384L143 372L138 359L135 345L133 332L132 318L131 305L127 293L121 281L113 271L103 263L91 257L79 253L66 252L53 253L41 257L29 263L19 271L11 281L5 293L1 305L0 318L1 345L5 372L12 398L22 424L34 448L48 471L65 493L83 512L104 530L126 545L150 559L175 569L201 577L227 583L254 586H282L309 583L335 577L361 569L386 559L410 545L432 530L453 512L471 493L488 471L502 448L514 424L524 398L531 372L535 345ZM536 318V0L535 -11L532 -21L528 -31L522 -41L515 -49L506 -55L497 -60L486 -64L475 -66H465L454 -64L443 -60L434 -55L425 -49L418 -41L412 -31L408 -21L405 -11L404 0V318L405 329L408 339L412 349L418 359L425 367L434 373L443 378L454 382L465 384H475L486 382L497 378L506 373L515 367L522 359L528 349L532 339L535 329Z"/></g></svg>